{
  "title": "Project.Almanac.2014.720p.BluRay.x264-SPARKS[rarbg]",
  "uid": 11921005,
  "size": 5891091387,
  "categoryP": "video",
  "categoryS": "hd___movies",
  "magnet": "?xt=urn:btih:245f11632565ba5a58f808eaa7fc88eba8a4cf06&amp;dn=Project.Almanac.2014.720p.BluRay.x264-SPARKS%5Brarbg%5D&amp;tr=udp%3A%2F%2Ftracker.openbittorrent.com%3A80&amp;tr=udp%3A%2F%2Fopen.demonii.com%3A1337&amp;tr=udp%3A%2F%2Ftracker.coppersurfer.tk%3A6969&amp;tr=udp%3A%2F%2Fexodus.desync.com%3A6969",
  "seeders": 65,
  "leechers": 23,
  "uploader": "vickey1992",
  "files": 6,
  "time": 1431634434,
  "description": "Project.Almanac.2014.720p.BluRay.x264-SPARKS\n\nRelease.Date: 13.05.2015\nVideo.......: X264 5851Kbps\nFrame.Rate..: 23.976\nResolution..: 1280x536\nAudio.......: DTS 1509Kbps 6ch\nLanguage....: English\nLength......: 1h 46mn\nSource......: Retail BluRay\nSize........: 5591MB\nSubtitles...:  English\n\nIMDb: http://www.imdb.com/title/tt2436386\n\nALLiANCE - iMARS\n\nASCii/NFO: pH7 of SiLK\n\n[-] Hide MediaInfo\n\nVideo\nID                                       : 1\nFormat                                   : AVC\nFormat/Info                              : Advanced Video Codec\nFormat profile                           : &lt;a class=&quot;__cf_email__&quot; href=&quot;/cdn-cgi/l/email-protection&quot; data-cfemail=&quot;2e664749466e621a001f&quot;&gt;[email&amp;#160;protected]&lt;/a&gt;&lt;script cf-hash='f9e31' type=&quot;text/javascript&quot;&gt;\n/* &lt;![CDATA[ */!function(){try{var t=&quot;currentScript&quot;in document?document.currentScript:function(){for(var t=document.getElementsByTagName(&quot;script&quot;),e=t.length;e--;)if(t[e].getAttribute(&quot;cf-hash&quot;))return t[e]}();if(t&amp;&amp;t.previousSibling){var e,r,n,i,c=t.previousSibling,a=c.getAttribute(&quot;data-cfemail&quot;);if(a){for(e=&quot;&quot;,r=parseInt(a.substr(0,2),16),n=2;a.length-n;n+=2)i=parseInt(a.substr(n,2),16)^r,e+=String.fromCharCode(i);e=document.createTextNode(e),c.parentNode.replaceChild(e,c)}}}catch(u){}}();/* ]]&gt; */&lt;/script&gt;\nFormat settings, CABAC                   : Yes\nFormat settings, ReFrames                : 5 frames\nCodec ID                                 : V_MPEG4/ISO/AVC\nDuration                                 : 1h 46mn\nBit rate                                 : 5 851 Kbps\nWidth                                    : 1 280 pixels\nHeight                                   : 536 pixels\nDisplay aspect ratio                     : 2.40:1\nFrame rate mode                          : Constant\nFrame rate                               : 23.976 fps\nColor space                              : YUV\nChroma subsampling                       : 4:2:0\nBit depth                                : 8 bits\nScan type                                : Progressive\nBits/(Pixel*Frame)                       : 0.356\nStream size                              : 4.23 GiB (78%)\nWriting library                          : x264 core 144 r2525 40bb568\nEncoding settings                        : cabac=1 / ref=5 / deblock=1:0:0 / analyse=0x3:0x133 / me=umh / subme=7 / psy=1 / psy_rd=1.00:0.00 / mixed_ref=1 / me_range=16 / chroma_me=1 / trellis=1 / 8x8dct=1 / cqm=0 / deadzone=21,11 / fast_pskip=0 / chroma_qp_offset=-2 / threads=60 / lookahead_threads=4 / sliced_threads=0 / nr=0 / decimate=1 / interlaced=0 / bluray_compat=0 / constrained_intra=0 / bframes=3 / b_pyramid=2 / b_adapt=1 / b_bias=0 / direct=1 / weightb=1 / open_gop=0 / weightp=2 / keyint=250 / keyint_min=23 / scenecut=40 / intra_refresh=0 / rc_lookahead=40 / rc=2pass / mbtree=1 / bitrate=5851 / ratetol=1.0 / qcomp=0.60 / qpmin=0 / qpmax=69 / qpstep=4 / cplxblur=20.0 / qblur=0.5 / ip_ratio=1.40 / aq=1:1.00\nLanguage                                 : English\nDefault                                  : Yes\nForced                                   : No\n\nAudio\nID                                       : 2\nFormat                                   : DTS\nFormat/Info                              : Digital Theater Systems\nMode                                     : 16\nFormat settings, Endianness              : Big\nCodec ID                                 : A_DTS\nDuration                                 : 1h 46mn\nBit rate mode                            : Constant\nBit rate                                 : 1 509 Kbps\nChannel(s)                               : 6 channels\nChannel positions                        : Front: L C R, Side: L R, LFE\nSampling rate                            : 48.0 KHz\nBit depth                                : 24 bits\nCompression mode                         : Lossy\nStream size                              : 1.12 GiB (21%)\nLanguage                                 : English\nDefault                                  : Yes\nForced                                   : No\n\nMenu\n00:00:00.000                             : en:00:00:00.000\n00:07:56.309                             : en:00:07:56.309\n00:15:20.211                             : en:00:15:20.211\n00:23:49.803                             : en:00:23:49.803\n00:31:15.665                             : en:00:31:15.665\n00:39:19.274                             : en:00:39:19.274\n00:46:58.274                             : en:00:46:58.274\n00:54:11.957                             : en:00:54:11.957\n01:00:55.485                             : en:01:00:55.485\n01:09:43.304                             : en:01:09:43.304\n01:16:24.371                             : en:01:16:24.371\n01:23:07.733                             : en:01:23:07.733\n01:32:20.618                             : en:01:32:20.618\n01:41:19.323                             : en:01:41:19.323",
  "parsed": {
    "xt": "urn:btih:245f11632565ba5a58f808eaa7fc88eba8a4cf06",
    "dn": "Project.Almanac.2014.720p.BluRay.x264-SPARKS[rarbg]",
    "tr": [
      "udp://exodus.desync.com:6969",
      "udp://open.demonii.com:1337",
      "udp://tracker.coppersurfer.tk:6969",
      "udp://tracker.openbittorrent.com:80"
    ],
    "infoHash": "245f11632565ba5a58f808eaa7fc88eba8a4cf06",
    "infoHashBuffer": {
      "type": "Buffer",
      "data": [
        36,
        95,
        17,
        99,
        37,
        101,
        186,
        90,
        88,
        248,
        8,
        234,
        167,
        252,
        136,
        235,
        168,
        164,
        207,
        6
      ]
    },
    "name": "Project.Almanac.2014.720p.BluRay.x264-SPARKS[rarbg]",
    "announce": [
      "udp://exodus.desync.com:6969",
      "udp://open.demonii.com:1337",
      "udp://tracker.coppersurfer.tk:6969",
      "udp://tracker.openbittorrent.com:80"
    ],
    "urlList": []
  },
  "previous": 88,
  "peers": 2,
  "last_updated": "2016-12-24T19:53:29.700Z"
}